<?xml version="1.0" standalone="no"?>
<!DOCTYPE svg PUBLIC "-//W3C//DTD SVG 20010904//EN"
 "http://www.w3.org/TR/2001/REC-SVG-20010904/DTD/svg10.dtd">
<svg version="1.0" xmlns="http://www.w3.org/2000/svg"
 width="540.000000pt" height="540.000000pt" viewBox="0 0 540.000000 540.000000"
 preserveAspectRatio="xMidYMid meet">

<g transform="translate(0.000000,540.000000) scale(0.100000,-0.100000)"
fill="#000000" stroke="none">
<path d="M2552 5045 c-35 -30 -55 -73 -50 -111 2 -24 8 -29 35 -32 18 -2 42 2
53 8 18 9 24 8 34 -6 7 -9 17 -14 23 -11 15 9 24 136 12 158 -15 28 -70 25
-107 -6z m68 -34 c0 -26 -38 -71 -61 -71 -26 0 -24 23 7 59 29 35 54 40 54 12z"/>
<path d="M2280 5039 c0 -20 3 -21 45 -15 25 4 45 4 45 1 0 -4 -11 -21 -25 -39
-29 -39 -58 -104 -50 -116 3 -4 33 -1 67 8 45 13 64 22 66 36 3 16 -1 18 -32
14 -20 -2 -36 -2 -36 0 0 2 13 21 30 42 16 21 31 48 32 61 3 23 0 24 -69 27
-69 3 -73 2 -73 -19z"/>
<path d="M2756 5034 c-6 -15 -3 -51 10 -111 6 -30 29 -29 59 3 23 24 23 25 30
5 8 -25 38 -43 58 -35 22 8 73 135 59 148 -9 9 -32 7 -32 -3 0 -5 -7 -26 -16
-47 l-17 -39 -14 43 c-18 51 -41 55 -67 11 -19 -33 -32 -29 -38 10 -4 29 -23
38 -32 15z"/>
<path d="M3372 5020 c-14 -24 -23 -30 -46 -28 -38 4 -45 -18 -11 -34 22 -10
25 -16 20 -37 -17 -65 -17 -101 -2 -101 20 0 26 11 35 62 l8 43 47 -3 c57 -4
67 19 15 35 -34 9 -36 16 -23 66 10 39 -20 37 -43 -3z"/>
<path d="M3085 5025 c-38 -19 -75 -73 -75 -108 0 -31 30 -43 86 -34 29 5 34 3
34 -14 0 -22 15 -25 27 -6 12 18 32 98 33 128 0 49 -45 63 -105 34z m65 -30
c0 -16 -31 -63 -45 -69 -26 -10 -55 -7 -55 5 0 19 58 69 79 69 12 0 21 -2 21
-5z"/>
<path d="M1955 5010 c-9 -14 15 -191 28 -207 5 -7 14 -10 19 -7 11 7 3 138
-11 190 -8 30 -25 42 -36 24z"/>
<path d="M3575 4970 c-8 -14 3 -30 21 -30 8 0 14 9 14 20 0 21 -24 28 -35 10z"/>
<path d="M1772 4914 c-32 -22 -52 -67 -52 -118 0 -31 5 -48 16 -54 22 -12 59
-4 79 18 14 15 21 17 36 7 10 -6 21 -8 25 -4 10 9 -12 135 -27 153 -15 18 -49
18 -77 -2z m45 -71 c-7 -42 -23 -63 -48 -63 -28 0 -24 42 7 79 31 38 48 31 41
-16z"/>
<path d="M3558 4913 c-22 -5 -73 -105 -65 -127 13 -34 40 -12 68 56 28 68 28
78 -3 71z"/>
<path d="M3639 4823 c-34 -89 -13 -117 46 -64 53 46 72 37 40 -19 -18 -32 -18
-37 0 -44 21 -8 55 49 55 91 0 26 -5 34 -25 39 -14 3 -36 3 -50 0 -18 -5 -25
-2 -25 9 0 26 -30 17 -41 -12z"/>
<path d="M1540 4503 c0 -22 59 -274 85 -360 29 -93 26 -107 -25 -118 -35 -8
-56 -31 -65 -73 -4 -18 -31 -68 -61 -109 l-55 -76 8 44 c4 24 8 89 7 144 0
103 -16 159 -59 210 -15 19 -16 13 -11 -105 3 -69 14 -168 25 -220 12 -58 16
-101 10 -110 -7 -13 -8 -12 -9 3 0 29 -46 110 -80 142 -17 17 -50 65 -72 107
-40 77 -113 162 -176 207 l-33 23 7 -26 c3 -15 31 -86 61 -159 45 -107 57
-147 62 -212 9 -102 29 -137 94 -169 12 -6 31 -27 41 -47 l19 -35 -42 -126
c-23 -69 -51 -170 -62 -224 -10 -54 -21 -99 -23 -101 -1 -2 -8 22 -15 53 -16
68 -45 135 -82 191 -31 45 -116 120 -125 110 -10 -9 96 -214 158 -307 51 -75
59 -94 56 -127 l-3 -38 -32 50 c-18 28 -43 66 -57 85 -24 36 -124 128 -180
166 -47 32 -160 74 -198 74 l-33 0 60 -56 c50 -47 89 -79 220 -183 6 -4 23
-16 38 -26 l28 -18 -27 -22 c-26 -21 -30 -21 -88 -9 -109 24 -222 13 -300 -28
l-29 -15 44 -11 c24 -5 111 -20 192 -33 142 -22 148 -24 154 -49 10 -39 51
-96 79 -109 31 -14 69 -14 96 0 11 6 21 9 23 7 1 -2 6 -43 10 -93 l7 -90 -48
49 c-59 59 -117 99 -181 127 -55 23 -167 37 -177 21 -6 -10 248 -143 360 -189
l51 -21 7 -58 c4 -32 9 -68 12 -79 3 -12 -2 -31 -13 -44 l-18 -22 -52 26 c-71
34 -150 35 -181 3 -11 -13 -25 -35 -31 -50 -8 -22 -17 -28 -43 -29 l-33 -1 36
-15 c20 -8 41 -25 47 -38 18 -39 73 -95 116 -117 33 -17 51 -19 100 -14 55 6
63 4 110 -26 28 -18 52 -36 54 -40 2 -5 10 -8 17 -8 13 0 26 -23 30 -53 1 -11
-5 -17 -20 -17 -28 0 -37 10 -24 26 16 19 -9 29 -30 10 -14 -13 -27 -14 -86
-4 -67 10 -183 6 -235 -8 -24 -7 -24 -6 -8 12 10 11 24 39 33 63 18 51 18 51
6 51 -5 0 -12 -13 -16 -28 -13 -60 -40 -88 -113 -116 -72 -28 -95 -46 -106
-82 -6 -21 -6 -21 46 -7 108 27 237 45 379 51 80 4 153 6 162 4 9 -2 19 -16
22 -32 9 -40 57 -89 95 -96 21 -5 42 -21 66 -52 19 -25 32 -47 30 -49 -2 -2
-29 7 -59 21 -109 48 -271 56 -402 21 -155 -42 -155 -41 15 -48 229 -10 496
-54 537 -89 19 -16 16 -30 -5 -24 -11 4 -35 -1 -56 -9 -54 -23 -181 -30 -274
-15 -95 15 -143 3 -231 -58 -83 -56 -80 -66 20 -57 151 12 315 45 499 99 l84
25 31 -24 c16 -13 50 -42 74 -63 l44 -39 -86 5 c-68 4 -100 0 -156 -17 -38
-12 -72 -25 -74 -29 -3 -4 81 -7 187 -7 l191 0 80 -48 c115 -68 109 -62 97
-84 -7 -13 -30 -23 -74 -32 -35 -7 -94 -28 -133 -47 -38 -19 -63 -32 -54 -30
8 2 65 10 127 17 l112 12 46 -46 46 -47 -47 0 c-38 0 -59 -8 -118 -46 -74 -47
-181 -133 -174 -140 7 -7 155 40 226 72 41 19 87 34 102 34 35 0 163 50 245
96 38 21 75 34 100 35 38 1 37 1 -21 17 -58 17 -60 18 -68 58 -10 52 -31 72
-98 90 -65 17 -115 18 -158 3 -24 -8 -39 -8 -62 1 -38 16 -36 30 32 163 43 87
73 137 136 224 22 32 5 29 -45 -8 -78 -57 -130 -154 -152 -287 l-12 -72 -28
20 c-31 22 -38 45 -71 230 -13 79 -24 192 -28 305 l-6 180 -26 -55 c-76 -159
-64 -326 35 -524 50 -99 51 -104 26 -91 -68 35 -331 271 -358 321 -8 15 -5 25
17 49 22 25 35 30 75 32 40 1 55 7 78 31 26 25 30 38 35 104 7 93 -1 142 -29
167 l-21 20 34 43 c19 24 63 76 98 117 67 77 64 83 -22 39 -21 -10 -41 -16
-46 -14 -15 9 -34 65 -27 81 9 24 21 18 40 -21 9 -20 19 -34 21 -32 3 3 -5 22
-16 44 l-22 39 48 95 c26 52 57 109 69 125 39 52 41 58 17 43 -12 -7 -21 -16
-21 -19 0 -4 -20 -29 -44 -55 -24 -27 -52 -65 -63 -86 -11 -20 -48 -68 -84
-108 -35 -39 -66 -77 -69 -83 -3 -7 -3 -43 0 -82 5 -66 6 -68 18 -42 7 16 12
36 12 46 0 21 58 111 71 111 5 0 17 -16 26 -35 l17 -36 -38 -31 c-21 -17 -56
-54 -78 -82 -22 -28 -54 -66 -70 -84 l-29 -33 -19 23 c-25 30 -25 63 1 195 21
110 34 147 48 139 4 -3 27 18 52 46 24 29 82 88 128 133 61 60 92 99 115 146
23 47 42 71 74 93 49 32 57 30 43 -8 -12 -29 -27 -164 -18 -156 3 3 15 43 27
90 11 47 28 99 36 117 14 32 34 52 34 36 0 -5 7 -18 15 -29 14 -17 14 -16 1
17 -13 35 -13 37 31 105 25 38 63 107 85 152 36 75 44 86 83 103 24 11 63 22
87 25 l45 6 20 -48 c28 -65 59 -186 78 -309 20 -128 30 -157 62 -186 62 -58
103 -120 103 -159 0 -56 11 -104 21 -89 10 17 1 173 -13 219 -6 19 -33 57 -59
85 -26 28 -53 63 -58 79 -6 15 -11 74 -11 132 0 112 4 102 -62 159 -14 11 -18
30 -18 78 1 74 19 116 78 182 47 54 48 52 31 -60 -15 -107 -13 -215 5 -259 9
-21 45 -69 81 -108 55 -59 68 -81 85 -140 18 -59 27 -73 60 -96 40 -28 60 -68
60 -124 0 -15 9 -51 20 -80 21 -57 99 -178 114 -178 5 0 6 23 2 53 -7 61 -40
170 -48 162 -11 -11 -45 50 -58 103 -10 42 -10 66 0 114 6 33 9 62 7 64 -2 3
-10 -23 -17 -56 -7 -33 -15 -60 -19 -60 -3 1 -19 11 -34 24 l-28 23 10 78 c6
43 9 80 7 82 -2 2 -7 -15 -11 -39 -13 -83 -17 -86 -31 -19 -16 77 -45 135 -85
168 -37 32 -55 66 -63 123 l-7 45 20 -35 c22 -40 119 -152 172 -198 20 -18 75
-48 123 -68 114 -48 132 -70 141 -171 8 -104 25 -145 90 -227 30 -38 55 -74
55 -81 0 -30 -33 -117 -46 -122 -12 -4 -6 -16 28 -52 45 -47 129 -147 141
-168 4 -6 -4 -28 -18 -49 -20 -30 -25 -48 -24 -98 2 -134 36 -187 124 -190 40
-2 51 -7 72 -35 l25 -32 -36 -44 c-69 -84 -328 -305 -357 -305 -6 0 -2 12 9
27 87 124 140 324 121 459 -7 53 -59 194 -71 194 -2 0 -4 -71 -4 -158 -3 -226
-51 -517 -92 -549 -30 -23 -40 -14 -47 43 -16 134 -92 265 -178 311 -39 20
-41 13 -9 -28 58 -71 182 -303 182 -339 0 -28 -43 -44 -81 -31 -44 15 -94 14
-164 -4 -68 -18 -92 -40 -101 -96 -6 -37 -8 -38 -63 -50 l-56 -13 40 -6 c22
-3 63 -18 90 -34 72 -40 213 -96 244 -96 15 0 31 -4 37 -9 14 -15 108 -49 192
-72 42 -11 86 -22 97 -26 32 -9 -49 60 -149 127 -75 50 -97 60 -133 60 -24 0
-43 2 -43 3 0 2 18 22 40 45 45 48 55 49 202 28 48 -6 85 -9 82 -5 -8 14 -163
69 -210 76 -30 4 -48 12 -55 25 -6 11 -9 21 -7 22 2 1 41 26 88 54 l85 52 120
7 c66 5 157 6 202 3 90 -5 92 -3 18 26 -38 14 -76 19 -157 19 -78 0 -104 3
-95 11 80 71 138 115 145 110 5 -3 88 -26 183 -50 164 -42 369 -77 449 -76
l35 1 -40 36 c-22 19 -69 49 -104 66 -63 30 -65 30 -140 18 -103 -15 -184 -14
-256 5 -33 9 -72 16 -87 17 -30 0 -35 9 -15 25 46 37 396 91 591 92 55 0 97 2
94 5 -8 8 -135 41 -212 55 -40 8 -96 10 -136 6 -73 -6 -191 -39 -228 -62 -30
-19 -28 -11 11 41 17 25 43 48 57 51 44 12 82 46 102 92 l20 45 162 -6 c164
-6 314 -26 386 -51 22 -7 40 -11 40 -7 0 9 -30 34 -68 57 -18 10 -32 25 -33
34 0 9 -3 10 -5 3 -4 -8 -13 -9 -35 -1 -32 11 -33 15 -19 52 5 14 6 26 1 26
-5 0 -13 -13 -19 -28 -9 -25 -14 -28 -46 -24 -40 5 -43 13 -21 65 17 40 19 57
7 57 -4 0 -14 -24 -22 -52 -14 -49 -17 -53 -48 -56 -33 -3 -34 -3 -27 30 5 24
4 29 -4 18 -6 -8 -11 -22 -11 -31 0 -12 -14 -18 -57 -23 -37 -4 -59 -3 -61 4
-2 5 -13 10 -24 10 -17 0 -18 -3 -9 -14 10 -12 6 -17 -26 -25 -58 -16 -65 -14
-61 16 2 21 19 38 72 73 66 43 71 45 145 45 70 0 80 3 121 32 25 18 58 53 74
78 16 26 42 52 60 60 l31 13 -31 1 c-25 1 -33 7 -48 42 -13 28 -28 45 -51 55
-24 10 -34 21 -39 45 -4 19 -23 48 -47 72 -38 35 -46 38 -85 35 -47 -3 -59 6
-21 17 71 21 379 176 385 194 5 14 -57 14 -117 0 -75 -17 -153 -62 -225 -129
-56 -53 -68 -60 -63 -40 4 14 7 56 7 94 0 61 2 67 18 60 34 -16 109 -10 132
11 25 23 60 86 60 110 0 8 6 15 13 15 25 0 284 40 331 51 58 14 51 21 -52 50
-81 23 -158 24 -236 4 -57 -15 -58 -15 -87 9 l-29 25 22 12 c51 26 162 116
263 211 57 55 59 58 33 58 -48 0 -151 -41 -213 -86 -89 -64 -136 -111 -201
-205 l-59 -84 -3 38 c-3 31 4 48 34 90 69 96 194 330 182 342 -1 2 -21 -9 -43
-24 -58 -39 -120 -137 -153 -243 l-28 -90 -17 94 c-10 51 -34 144 -54 206 -19
62 -34 114 -32 116 2 1 54 22 114 46 108 42 190 81 270 131 l40 24 -43 3
c-102 7 -224 -47 -336 -149 -46 -41 -57 -48 -62 -34 -10 26 28 85 68 106 51
26 79 83 83 168 2 50 13 90 45 166 23 55 52 128 66 163 l23 63 -29 -18 c-53
-31 -129 -112 -170 -182 -22 -37 -40 -72 -40 -78 0 -6 -21 -33 -46 -59 -48
-49 -76 -102 -76 -143 0 -21 -2 -22 -10 -7 -7 12 -3 56 11 139 19 113 31 300
19 312 -11 12 -57 -95 -68 -158 -9 -52 -9 -86 0 -148 6 -45 9 -83 7 -86 -3 -2
-14 11 -26 30 -11 19 -34 51 -51 72 -16 21 -30 48 -30 60 0 32 -35 72 -69 80
-53 11 -56 25 -23 122 17 48 42 142 56 208 15 66 28 128 30 138 5 23 -3 22
-27 -5 -69 -80 -89 -138 -96 -289 l-6 -127 -32 27 c-29 24 -35 38 -47 109 -16
91 -65 209 -102 243 -13 12 -24 17 -24 11 0 -23 53 -179 81 -236 16 -33 29
-67 29 -77 0 -9 20 -34 45 -55 25 -20 45 -40 45 -44 0 -3 -16 -6 -35 -7 -20
-1 -46 -8 -58 -15 -12 -8 -57 -17 -99 -21 -114 -8 -126 -21 -34 -36 42 -7 81
-18 86 -24 53 -67 73 -84 119 -101 56 -20 88 -16 130 13 15 11 34 16 44 12 17
-6 80 -92 72 -99 -2 -2 -25 3 -52 12 -218 73 -414 54 -530 -50 -35 -31 -36
-34 -13 -30 122 23 318 45 471 52 l136 7 38 -68 c39 -69 118 -257 131 -309 6
-27 3 -25 -72 34 -140 112 -265 156 -390 139 -87 -12 -86 -24 4 -48 106 -28
239 -72 334 -109 146 -57 133 -45 156 -146 27 -117 46 -236 38 -243 -3 -3 -17
2 -30 11 -23 15 -24 17 -11 43 20 37 19 93 -2 123 -32 49 -69 83 -108 101
l-40 19 65 0 65 1 -65 26 c-36 14 -107 32 -159 41 -78 13 -106 14 -164 3 -84
-14 -176 -53 -209 -88 l-23 -25 30 5 c34 7 230 24 350 31 75 5 78 4 53 -10
-34 -18 -48 -43 -48 -86 1 -70 78 -192 129 -203 17 -4 44 0 66 9 34 15 38 14
70 -7 33 -21 34 -25 35 -82 2 -170 -2 -291 -11 -299 -6 -6 -9 -5 -9 3 0 23
-79 176 -118 228 -54 72 -139 140 -206 163 -100 36 -106 27 -30 -42 182 -168
364 -362 364 -391 0 -22 -11 -47 -20 -47 -5 0 -25 24 -46 53 -89 124 -195 192
-319 203 l-80 7 95 -50 c105 -55 216 -127 300 -194 l55 -44 -70 -6 c-38 -4
-96 -10 -127 -14 l-57 -8 -34 75 c-38 83 -30 77 -223 148 -74 27 -93 38 -103
61 -20 44 -84 139 -139 205 -44 53 -61 66 -121 89 -39 15 -79 37 -90 51 -10
13 -30 63 -45 111 -38 126 -61 171 -98 191 -48 26 -75 58 -87 107 -14 55 -51
101 -75 92 -9 -4 -24 -23 -32 -42 -8 -20 -29 -52 -47 -73 -18 -20 -43 -51 -55
-68 -18 -26 -30 -32 -73 -37 -28 -4 -80 -19 -114 -35 -61 -29 -63 -31 -102
-114 -22 -46 -70 -128 -105 -181 -54 -80 -74 -102 -114 -123 -69 -36 -91 -60
-110 -118 -14 -43 -39 -72 -158 -192 -78 -78 -161 -153 -186 -167 -25 -15 -60
-40 -79 -55 l-33 -29 -57 17 c-95 28 -138 62 -128 100 3 11 2 20 -3 20 -4 0
-10 17 -12 38 -4 30 1 44 25 77 43 56 258 275 342 348 l69 60 -43 -6 c-133
-17 -258 -130 -346 -311 l-53 -109 -7 44 c-6 38 -4 103 6 234 1 11 -2 36 -5
55 -6 32 -4 37 28 57 32 19 38 20 73 8 21 -8 46 -14 55 -15 49 -1 140 133 142
209 1 41 -22 76 -59 92 -12 5 10 6 55 3 138 -9 325 -25 355 -31 30 -5 30 -5
11 16 -31 34 -98 67 -176 86 -109 27 -253 9 -374 -46 l-41 -19 65 -1 c57 -1
61 -2 33 -10 -46 -13 -119 -89 -134 -138 -10 -34 -10 -47 4 -81 15 -39 15 -41
-6 -55 -20 -14 -22 -14 -26 2 -7 36 23 204 61 333 39 136 140 363 172 389 13
11 42 13 144 7 142 -8 292 -22 367 -36 28 -4 66 -11 85 -14 l34 -6 -29 31
c-39 41 -90 66 -172 85 -103 24 -212 13 -402 -42 -24 -7 -24 -6 8 39 45 66 64
74 104 45 43 -31 101 -29 159 5 24 14 50 38 58 54 20 38 22 39 107 53 92 16
83 29 -23 37 -44 3 -90 12 -103 20 -13 9 -41 16 -61 17 -47 1 -43 13 16 56 27
19 43 38 40 46 -3 7 12 51 34 96 37 79 76 205 67 215 -3 2 -19 -13 -36 -34
-39 -47 -68 -123 -83 -216 -9 -60 -17 -77 -44 -104 -18 -18 -34 -33 -36 -33
-2 0 -4 48 -4 108 1 135 -26 230 -85 295 -21 23 -38 37 -39 30z m147 -483
c-34 -4 -71 -16 -87 -29 -31 -23 -40 -26 -40 -13 0 19 86 52 135 51 l50 -2
-58 -7z m1813 -10 c21 -11 41 -24 45 -30 9 -15 0 -12 -42 13 -21 12 -63 25
-93 28 l-55 6 53 2 c35 1 66 -6 92 -19z m-2179 -162 c29 -32 54 -98 46 -121
-2 -6 -9 9 -15 33 -6 26 -26 61 -45 83 -19 20 -30 37 -25 37 5 0 22 -15 39
-32z m2498 19 c-30 -23 -69 -90 -69 -119 0 -16 -4 -27 -10 -23 -5 3 -7 11 -5
18 2 7 6 24 9 39 7 31 62 98 80 98 6 0 4 -6 -5 -13z m-39 -251 c-1 -31 -1 -31
-25 14 -31 58 -31 69 0 40 16 -15 25 -34 25 -54z m-2432 13 l-23 -44 -3 30
c-3 21 3 34 19 47 31 26 33 17 7 -33z m116 -482 c-15 -44 -59 -98 -96 -118
-32 -17 -19 5 16 29 30 21 65 75 81 126 3 10 8 17 10 14 3 -2 -2 -25 -11 -51z
m2229 -66 c12 -12 31 -28 42 -36 16 -11 17 -14 4 -15 -32 0 -109 106 -108 150
0 18 5 11 20 -27 11 -28 30 -61 42 -72z m-2566 -53 c40 -44 72 -131 53 -143
-6 -4 -10 6 -10 23 0 31 -38 96 -73 124 -17 14 -18 18 -6 18 8 0 25 -10 36
-22z m2854 -24 c-24 -28 -44 -62 -50 -87 -7 -34 -9 -37 -10 -14 -1 34 22 82
57 120 43 46 46 30 3 -19z m54 -436 c19 -18 38 -47 41 -63 5 -29 3 -31 -38
-41 -24 -7 -53 -15 -66 -19 -19 -6 -21 -5 -15 10 4 13 3 16 -5 11 -7 -4 -12
-15 -12 -26 0 -10 -7 -21 -16 -24 -12 -4 -15 -2 -10 9 10 27 -3 16 -19 -16 -9
-17 -18 -29 -20 -27 -5 5 30 126 52 175 23 55 57 58 108 11z m-625 -85 c16
-25 34 -61 41 -80 14 -43 25 -42 34 4 7 40 34 98 41 90 8 -7 34 -118 50 -209
15 -87 15 -89 -7 -119 l-22 -31 -46 52 c-25 29 -70 78 -99 110 l-54 59 7 85
c4 47 11 86 16 86 5 0 23 -21 39 -47z m435 -104 c-14 -38 -24 -73 -21 -78 3
-5 -3 -31 -14 -57 l-21 -47 -31 29 c-45 41 -55 53 -79 104 l-21 44 30 27 c20
18 49 30 93 38 34 6 67 15 73 21 22 22 18 -13 -9 -81z m-2730 52 c41 -18 110
-79 101 -89 -3 -2 -18 9 -33 25 -31 33 -75 58 -137 79 -39 13 -39 13 -6 8 19
-3 53 -14 75 -23z m2965 19 c-8 -5 -23 -10 -33 -10 -30 0 -92 -37 -125 -75
-18 -20 -32 -30 -32 -22 0 24 68 79 122 98 60 21 93 25 68 9z m-2850 -60 c0
-12 -3 -12 -16 2 -9 9 -13 21 -9 28 9 14 25 -5 25 -30z m143 -21 c48 -17 57
-24 57 -44 0 -35 -43 -126 -73 -153 l-25 -24 -40 105 c-22 57 -44 121 -47 140
l-7 37 38 -20 c22 -11 65 -30 97 -41z m2480 -81 c-4 -22 -3 -29 5 -24 7 4 12
2 12 -4 0 -12 -28 -25 -36 -17 -6 6 14 77 22 77 2 0 1 -14 -3 -32z m-2587 -13
c10 -31 9 -35 -7 -35 -23 0 -28 9 -22 43 7 36 16 34 29 -8z m2574 -80 c-26
-27 -41 -25 -33 4 3 11 15 21 27 23 31 5 32 1 6 -27z m-2536 -11 c17 -37 13
-64 -5 -31 -6 9 -22 28 -37 42 l-27 25 26 0 c19 0 29 -9 43 -36z m2429 3 c28
-24 37 -37 31 -50 -6 -16 -9 -14 -25 12 -10 16 -27 35 -38 41 -20 10 -29 30
-13 30 4 0 24 -15 45 -33z m-156 -64 c-34 -52 -50 -108 -43 -146 5 -26 4 -28
-5 -14 -17 29 -1 111 32 163 17 25 32 44 35 41 3 -3 -6 -22 -19 -44z m-2016
-31 c12 -26 18 -64 18 -95 l-2 -52 -7 55 c-8 59 -31 123 -49 134 -6 4 -11 12
-11 18 0 21 33 -17 51 -60z m195 -76 c-7 -44 -43 -113 -53 -102 -3 3 1 14 9
23 24 27 39 97 34 155 l-5 53 10 -44 c6 -24 8 -63 5 -85z m1606 54 c-4 -57 0
-77 17 -111 12 -23 20 -44 17 -46 -2 -3 -14 13 -25 36 -26 49 -30 191 -7 191
1 0 0 -31 -2 -70z m-2526 -53 c-10 -7 -32 -23 -47 -35 -24 -20 -29 -21 -29 -7
0 9 18 24 43 35 47 22 61 25 33 7z m750 -128 c3 -6 -3 -21 -15 -32 l-21 -21 0
25 c0 37 20 53 36 28z m1964 -21 l-1 -33 -19 24 c-21 24 -19 41 6 41 9 0 14
-11 14 -32z m-2010 -14 c0 -8 -4 -14 -9 -14 -11 0 -22 26 -14 34 9 9 23 -3 23
-20z m2042 -6 c-9 -9 -12 -7 -12 12 0 19 3 21 12 12 9 -9 9 -15 0 -24z m-1286
-487 c23 -10 45 -24 48 -30 10 -16 2 -14 -40 11 -24 14 -63 24 -108 29 l-71 6
65 1 c44 1 78 -4 106 -17z m612 10 c-58 -5 -85 -13 -109 -30 -17 -12 -33 -20
-36 -17 -8 8 -6 9 42 34 30 16 57 21 110 20 l70 -1 -77 -6z"/>
<path d="M3793 2365 c-6 -19 -8 -35 -3 -35 8 0 23 60 17 67 -2 1 -8 -13 -14
-32z"/>
<path d="M3750 2369 c0 -2 -4 -19 -9 -37 -5 -17 -6 -32 -1 -32 8 0 21 62 14
69 -2 2 -4 2 -4 0z"/>
<path d="M880 3724 c0 -21 273 -155 372 -182 48 -13 42 0 -28 60 -90 76 -182
119 -270 125 -41 3 -74 2 -74 -3z"/>
<path d="M1610 3559 c-72 -12 -183 -67 -264 -132 -73 -58 -94 -87 -46 -62 50
26 187 74 354 125 152 46 157 48 125 58 -54 16 -110 20 -169 11z"/>
<path d="M2394 3258 c-4 -7 -13 -87 -20 -178 -11 -155 -14 -169 -45 -235 -31
-63 -34 -78 -34 -160 0 -100 8 -82 -108 -238 -26 -36 -49 -77 -51 -93 -2 -16
-1 -21 1 -12 8 33 61 75 123 98 71 26 110 54 110 79 0 24 59 144 109 220 22
35 39 66 36 69 -11 11 -120 -55 -151 -92 -48 -56 -45 -23 8 84 42 83 43 87 38
165 -2 44 -4 131 -5 193 0 61 -1 112 -2 112 -1 0 -5 -5 -9 -12z"/>
<path d="M2291 3230 c0 -8 6 -26 15 -40 l15 -25 -7 25 c-3 14 -10 32 -15 40
-7 13 -8 13 -8 0z"/>
<path d="M2190 3167 c0 -14 52 -141 62 -152 5 -5 -2 20 -16 58 -26 69 -45 109
-46 94z"/>
<path d="M2865 2955 c-4 -31 -5 -58 -2 -61 3 -3 9 20 12 51 4 31 5 58 2 61 -3
3 -9 -20 -12 -51z"/>
<path d="M2961 2852 c-21 -90 -25 -120 -16 -110 8 7 46 190 41 195 -2 2 -13
-36 -25 -85z"/>
<path d="M2060 2915 c0 -5 5 -17 10 -25 5 -8 10 -10 10 -5 0 6 -5 17 -10 25
-5 8 -10 11 -10 5z"/>
<path d="M2232 2851 c-12 -16 -26 -51 -33 -78 -6 -26 -17 -57 -24 -69 -11 -16
-128 -95 -169 -113 -4 -2 -5 24 -1 58 4 33 4 61 1 61 -14 0 -162 -237 -153
-246 7 -8 84 33 142 76 27 20 65 42 82 48 37 12 123 76 137 100 9 16 46 184
42 189 -2 2 -12 -10 -24 -26z"/>
<path d="M2060 2845 c0 -5 5 -17 10 -25 5 -8 10 -10 10 -5 0 6 -5 17 -10 25
-5 8 -10 11 -10 5z"/>
<path d="M1540 2791 c-59 -12 -127 -50 -186 -104 -54 -49 -128 -146 -119 -155
2 -3 26 13 52 35 97 79 191 139 311 199 l67 33 -45 -1 c-25 0 -61 -3 -80 -7z"/>
<path d="M2780 2761 c7 -14 13 -65 14 -115 1 -86 -1 -93 -29 -131 -16 -22 -33
-42 -36 -45 -3 -3 -14 -21 -24 -40 -15 -29 -17 -50 -11 -130 7 -109 11 -100
-105 -252 -31 -41 -68 -93 -82 -115 -15 -23 -39 -53 -54 -67 -51 -48 -12 -26
71 39 46 36 110 93 142 127 108 115 180 183 223 213 l43 29 40 -43 c72 -77 59
-22 -27 114 -48 77 -50 82 -51 155 -1 105 1 99 -55 186 -53 82 -81 117 -59 75z"/>
<path d="M2996 2758 c-3 -13 -5 -32 -5 -43 1 -11 5 -2 10 19 10 42 6 62 -5 24z"/>
<path d="M3026 2659 c-8 -42 0 -50 9 -9 4 17 5 34 2 36 -2 3 -7 -10 -11 -27z"/>
<path d="M2488 2635 c9 -26 18 -42 20 -37 3 9 -26 82 -33 82 -2 0 4 -20 13
-45z"/>
<path d="M5393 2580 c0 -25 2 -35 4 -22 2 12 2 32 0 45 -2 12 -4 2 -4 -23z"/>
<path d="M3051 2569 c-6 -18 -9 -34 -7 -36 2 -2 9 10 15 28 6 18 9 34 7 36 -2
2 -9 -10 -15 -28z"/>
<path d="M2476 2561 c10 -37 33 -88 33 -71 0 8 -9 33 -20 55 -10 22 -16 29
-13 16z"/>
<path d="M1977 2490 c-53 -33 -63 -58 -53 -128 17 -118 18 -144 6 -191 -7 -32
-8 -56 -2 -67 8 -14 14 -7 35 37 14 30 37 74 51 99 36 64 66 133 61 138 -2 2
-11 -3 -20 -12 -9 -9 -25 -16 -35 -16 -20 0 -70 53 -70 74 0 7 19 32 42 54 23
23 40 42 37 42 -3 0 -26 -13 -52 -30z"/>
<path d="M2441 2505 c0 -5 6 -21 14 -35 8 -14 14 -20 14 -15 0 6 -6 21 -14 35
-8 14 -14 21 -14 15z"/>
<path d="M3081 2469 c-7 -22 -11 -43 -8 -45 2 -2 9 14 16 37 7 22 11 43 8 45
-2 2 -9 -14 -16 -37z"/>
<path d="M5383 2465 c0 -27 2 -38 4 -22 2 15 2 37 0 50 -2 12 -4 0 -4 -28z"/>
<path d="M2471 2435 c0 -5 6 -21 14 -35 8 -14 14 -20 14 -15 0 6 -6 21 -14 35
-8 14 -14 21 -14 15z"/>
<path d="M2421 2410 c14 -31 19 -36 19 -24 0 6 -7 19 -16 30 -14 18 -14 18 -3
-6z"/>
<path d="M2270 2407 c0 -12 58 -137 65 -137 3 0 -1 15 -8 33 -20 46 -56 113
-57 104z"/>
<path d="M2376 2339 c19 -39 38 -69 41 -66 5 6 -64 137 -73 137 -2 0 12 -32
32 -71z"/>
<path d="M5371 2376 c-2 -49 -50 -276 -82 -385 -189 -657 -631 -1226 -1224
-1576 -329 -194 -716 -321 -1088 -356 -164 -15 -556 -7 -692 15 -565 91 -1077
349 -1476 746 -152 151 -207 214 -301 345 -190 265 -336 573 -418 885 -16 58
-29 99 -29 92 -2 -25 48 -207 88 -324 191 -552 561 -1032 1047 -1359 996 -668
2317 -599 3234 169 432 362 749 863 885 1402 32 128 67 326 62 353 -3 17 -5
16 -6 -7z"/>
<path d="M2440 2365 c0 -5 5 -17 10 -25 5 -8 10 -10 10 -5 0 6 -5 17 -10 25
-5 8 -10 11 -10 5z"/>
<path d="M3081 2329 c-7 -22 -11 -43 -8 -45 2 -2 9 14 16 37 7 22 11 43 8 45
-2 2 -9 -14 -16 -37z"/>
<path d="M2240 2356 c0 -11 30 -66 36 -66 2 0 -3 15 -12 33 -19 36 -24 44 -24
33z"/>
<path d="M3164 2344 c-20 -56 -63 -142 -74 -149 -10 -6 -11 -3 -6 11 37 90 55
144 48 144 -4 0 -21 -39 -37 -87 -19 -58 -42 -101 -67 -130 -41 -48 -54 -94
-43 -150 l8 -38 9 35 c23 87 56 120 213 215 15 9 15 16 -8 83 -28 83 -34 92
-43 66z"/>
<path d="M31 2284 c0 -11 3 -14 6 -6 3 7 2 16 -1 19 -3 4 -6 -2 -5 -13z"/>
<path d="M4190 2250 c0 -23 56 -59 113 -71 63 -13 97 -37 97 -67 0 -10 11 -29
25 -42 13 -12 29 -38 35 -56 12 -36 40 -58 103 -80 23 -8 52 -25 65 -37 23
-20 24 -21 21 -3 -3 12 -30 33 -74 57 -63 33 -71 41 -85 81 -8 25 -20 52 -27
59 -6 8 -15 27 -18 42 -10 38 -39 55 -126 73 -41 8 -83 24 -95 35 -22 21 -34
24 -34 9z"/>
<path d="M42 2230 c0 -14 2 -19 5 -12 2 6 2 18 0 25 -3 6 -5 1 -5 -13z"/>
<path d="M51 2174 c0 -11 3 -14 6 -6 3 7 2 16 -1 19 -3 4 -6 -2 -5 -13z"/>
<path d="M3196 897 c-12 -13 -30 -43 -39 -67 -9 -25 -26 -71 -37 -102 -26 -71
-51 -103 -100 -128 -27 -14 -42 -30 -50 -54 -16 -50 -62 -86 -110 -86 l-38 0
24 58 c27 66 31 124 8 146 -21 21 -27 20 -62 -9 -51 -43 -51 -125 -1 -125 29
0 19 -20 -22 -48 -28 -20 -43 -23 -86 -19 -43 5 -53 3 -53 -9 0 -18 58 -44 98
-44 15 0 37 6 47 14 17 12 23 12 47 0 15 -8 43 -14 63 -14 45 0 89 42 106 101
10 30 19 41 46 50 18 6 45 25 58 44 27 35 145 281 145 303 0 19 -19 14 -44
-11z m-366 -302 c0 -25 -23 -35 -35 -15 -10 16 2 40 20 40 9 0 15 -9 15 -25z"/>
<path d="M2798 887 c-23 -19 -178 -339 -178 -367 0 -18 25 -10 42 15 10 13 35
64 57 114 22 50 60 125 85 166 25 42 46 80 46 85 0 17 -24 11 -52 -13z"/>
<path d="M3323 892 c-29 -22 -192 -366 -180 -378 17 -17 40 16 101 143 37 76
81 159 97 184 16 25 29 51 29 57 0 17 -21 14 -47 -6z"/>
<path d="M2594 855 c-43 -32 34 -69 89 -43 21 11 22 22 1 43 -11 11 -20 13
-27 6 -6 -6 -16 -7 -27 -1 -12 6 -23 5 -36 -5z"/>
<path d="M3040 835 c-11 -14 -10 -19 6 -35 17 -17 21 -17 39 -4 15 11 17 18 9
32 -15 23 -38 26 -54 7z"/>
<path d="M2211 756 c-10 -11 -9 -19 1 -35 15 -25 17 -25 43 -5 15 11 17 18 9
32 -15 23 -38 26 -53 8z"/>
<path d="M2576 685 c-13 -29 -20 -35 -46 -35 -16 0 -39 5 -50 12 -15 10 -22 9
-38 -5 -20 -19 -49 -22 -72 -7 -24 15 -40 -9 -40 -59 -1 -134 -122 -254 -258
-255 -74 0 -117 22 -132 69 -22 67 12 148 91 219 52 47 59 68 15 48 -80 -36
-156 -156 -156 -244 0 -56 22 -106 58 -133 38 -28 148 -33 208 -10 56 21 147
108 165 158 14 41 23 46 38 20 8 -14 12 -15 25 -4 11 10 20 10 29 3 8 -7 18
-6 32 4 33 24 8 49 -49 49 -43 0 -47 2 -42 20 3 11 6 28 6 38 0 12 8 17 28 17
15 0 33 5 39 11 7 7 22 8 47 1 38 -11 72 -6 95 12 18 14 51 87 45 98 -10 17
-24 7 -38 -27z"/>
</g>
</svg>
